<mxfile host="Electron" modified="2023-09-29T14:36:16.082Z" agent="Mozilla/5.0 (Windows NT 10.0; Win64; x64) AppleWebKit/537.36 (KHTML, like Gecko) draw.io/21.7.5 Chrome/114.0.5735.289 Electron/25.8.1 Safari/537.36" etag="s2IKmOteHraJfnQqlyfI" version="21.7.5" type="device">
  <diagram id="R2lEEEUBdFMjLlhIrx00" name="Page-1">
    <mxGraphModel dx="780" dy="543" grid="1" gridSize="10" guides="1" tooltips="1" connect="1" arrows="1" fold="1" page="1" pageScale="1" pageWidth="850" pageHeight="1100" math="0" shadow="0" extFonts="Permanent Marker^https://fonts.googleapis.com/css?family=Permanent+Marker">
      <root>
        <mxCell id="0" />
        <mxCell id="1" parent="0" />
        <mxCell id="VUhckj7xuMdOrdHYNBKd-25" value="" style="edgeStyle=orthogonalEdgeStyle;rounded=0;orthogonalLoop=1;jettySize=auto;html=1;" edge="1" parent="1" source="VUhckj7xuMdOrdHYNBKd-1" target="VUhckj7xuMdOrdHYNBKd-4">
          <mxGeometry relative="1" as="geometry" />
        </mxCell>
        <mxCell id="VUhckj7xuMdOrdHYNBKd-1" value="Collect Data" style="shape=process;whiteSpace=wrap;html=1;backgroundOutline=1;fillColor=#7EA6E0;" vertex="1" parent="1">
          <mxGeometry x="230" y="230" width="120" height="60" as="geometry" />
        </mxCell>
        <mxCell id="VUhckj7xuMdOrdHYNBKd-26" value="" style="edgeStyle=orthogonalEdgeStyle;rounded=0;orthogonalLoop=1;jettySize=auto;html=1;" edge="1" parent="1" source="VUhckj7xuMdOrdHYNBKd-4" target="VUhckj7xuMdOrdHYNBKd-5">
          <mxGeometry relative="1" as="geometry" />
        </mxCell>
        <mxCell id="VUhckj7xuMdOrdHYNBKd-4" value="Update Calculations" style="shape=process;whiteSpace=wrap;html=1;backgroundOutline=1;fillColor=#7EA6E0;" vertex="1" parent="1">
          <mxGeometry x="370" y="230" width="120" height="60" as="geometry" />
        </mxCell>
        <mxCell id="VUhckj7xuMdOrdHYNBKd-5" value="Update Ports" style="shape=process;whiteSpace=wrap;html=1;backgroundOutline=1;fillColor=#7EA6E0;" vertex="1" parent="1">
          <mxGeometry x="510" y="230" width="120" height="60" as="geometry" />
        </mxCell>
        <mxCell id="VUhckj7xuMdOrdHYNBKd-30" value="" style="edgeStyle=orthogonalEdgeStyle;rounded=0;orthogonalLoop=1;jettySize=auto;html=1;exitX=0.5;exitY=1;exitDx=0;exitDy=0;entryX=0;entryY=0.5;entryDx=0;entryDy=0;" edge="1" parent="1" source="VUhckj7xuMdOrdHYNBKd-7" target="VUhckj7xuMdOrdHYNBKd-15">
          <mxGeometry relative="1" as="geometry" />
        </mxCell>
        <mxCell id="VUhckj7xuMdOrdHYNBKd-31" value="Yes" style="edgeLabel;html=1;align=center;verticalAlign=middle;resizable=0;points=[];" vertex="1" connectable="0" parent="VUhckj7xuMdOrdHYNBKd-30">
          <mxGeometry x="-0.2727" y="-3" relative="1" as="geometry">
            <mxPoint x="-2" as="offset" />
          </mxGeometry>
        </mxCell>
        <mxCell id="VUhckj7xuMdOrdHYNBKd-33" value="" style="edgeStyle=orthogonalEdgeStyle;rounded=0;orthogonalLoop=1;jettySize=auto;html=1;" edge="1" parent="1" source="VUhckj7xuMdOrdHYNBKd-7" target="VUhckj7xuMdOrdHYNBKd-1">
          <mxGeometry relative="1" as="geometry" />
        </mxCell>
        <mxCell id="VUhckj7xuMdOrdHYNBKd-34" value="No" style="edgeLabel;html=1;align=center;verticalAlign=middle;resizable=0;points=[];" vertex="1" connectable="0" parent="VUhckj7xuMdOrdHYNBKd-33">
          <mxGeometry x="-0.0356" y="-2" relative="1" as="geometry">
            <mxPoint as="offset" />
          </mxGeometry>
        </mxCell>
        <mxCell id="VUhckj7xuMdOrdHYNBKd-7" value="End&lt;br&gt;Condition&lt;br&gt;Met" style="rhombus;whiteSpace=wrap;html=1;fillColor=#FFB570;" vertex="1" parent="1">
          <mxGeometry x="100" y="220" width="80" height="80" as="geometry" />
        </mxCell>
        <mxCell id="VUhckj7xuMdOrdHYNBKd-28" value="" style="edgeStyle=orthogonalEdgeStyle;rounded=0;orthogonalLoop=1;jettySize=auto;html=1;" edge="1" parent="1" source="VUhckj7xuMdOrdHYNBKd-14" target="VUhckj7xuMdOrdHYNBKd-7">
          <mxGeometry relative="1" as="geometry" />
        </mxCell>
        <mxCell id="VUhckj7xuMdOrdHYNBKd-14" value="Start" style="ellipse;whiteSpace=wrap;html=1;aspect=fixed;fillColor=#000000;fontColor=#FFFFFF;" vertex="1" parent="1">
          <mxGeometry y="220" width="80" height="80" as="geometry" />
        </mxCell>
        <mxCell id="VUhckj7xuMdOrdHYNBKd-15" value="Stop" style="ellipse;whiteSpace=wrap;html=1;aspect=fixed;fontColor=#FFFFFF;fillColor=#000000;" vertex="1" parent="1">
          <mxGeometry x="230" y="310" width="80" height="80" as="geometry" />
        </mxCell>
        <mxCell id="VUhckj7xuMdOrdHYNBKd-35" value="" style="endArrow=classic;html=1;rounded=0;exitX=0.5;exitY=0;exitDx=0;exitDy=0;entryX=0.5;entryY=0;entryDx=0;entryDy=0;" edge="1" parent="1" source="VUhckj7xuMdOrdHYNBKd-5" target="VUhckj7xuMdOrdHYNBKd-7">
          <mxGeometry width="50" height="50" relative="1" as="geometry">
            <mxPoint x="710" y="230" as="sourcePoint" />
            <mxPoint x="548.8888549804688" y="160" as="targetPoint" />
            <Array as="points">
              <mxPoint x="570" y="180" />
              <mxPoint x="140" y="180" />
            </Array>
          </mxGeometry>
        </mxCell>
      </root>
    </mxGraphModel>
  </diagram>
</mxfile>
